<mxfile host="app.diagrams.net" agent="Mozilla/5.0 (Windows NT 10.0; Win64; x64) AppleWebKit/537.36 (KHTML, like Gecko) Chrome/130.0.0.0 Safari/537.36" version="24.8.4">
  <diagram id="C5RBs43oDa-KdzZeNtuy" name="Page-1">
    <mxGraphModel dx="811" dy="2269" grid="1" gridSize="10" guides="1" tooltips="1" connect="1" arrows="1" fold="1" page="1" pageScale="1" pageWidth="827" pageHeight="1169" math="0" shadow="0">
      <root>
        <mxCell id="WIyWlLk6GJQsqaUBKTNV-0" />
        <mxCell id="WIyWlLk6GJQsqaUBKTNV-1" parent="WIyWlLk6GJQsqaUBKTNV-0" />
        <mxCell id="sukDIFnTaNtangZ4HZ9V-0" value="DisciplinaryAction" style="swimlane;fontStyle=2;align=center;verticalAlign=top;childLayout=stackLayout;horizontal=1;startSize=26;horizontalStack=0;resizeParent=1;resizeLast=0;collapsible=1;marginBottom=0;rounded=0;shadow=0;strokeWidth=1;" vertex="1" parent="WIyWlLk6GJQsqaUBKTNV-1">
          <mxGeometry x="230" y="-1010" width="160" height="138" as="geometry">
            <mxRectangle x="230" y="140" width="160" height="26" as="alternateBounds" />
          </mxGeometry>
        </mxCell>
        <mxCell id="sukDIFnTaNtangZ4HZ9V-4" value="" style="line;html=1;strokeWidth=1;align=left;verticalAlign=middle;spacingTop=-1;spacingLeft=3;spacingRight=3;rotatable=0;labelPosition=right;points=[];portConstraint=eastwest;" vertex="1" parent="sukDIFnTaNtangZ4HZ9V-0">
          <mxGeometry y="26" width="160" height="8" as="geometry" />
        </mxCell>
        <mxCell id="sukDIFnTaNtangZ4HZ9V-5" value="+ processViolation(): void" style="text;align=left;verticalAlign=top;spacingLeft=4;spacingRight=4;overflow=hidden;rotatable=0;points=[[0,0.5],[1,0.5]];portConstraint=eastwest;" vertex="1" parent="sukDIFnTaNtangZ4HZ9V-0">
          <mxGeometry y="34" width="160" height="26" as="geometry" />
        </mxCell>
        <mxCell id="sukDIFnTaNtangZ4HZ9V-6" value="+ assignSanction(): void" style="text;align=left;verticalAlign=top;spacingLeft=4;spacingRight=4;overflow=hidden;rotatable=0;points=[[0,0.5],[1,0.5]];portConstraint=eastwest;" vertex="1" parent="sukDIFnTaNtangZ4HZ9V-0">
          <mxGeometry y="60" width="160" height="46" as="geometry" />
        </mxCell>
        <mxCell id="sukDIFnTaNtangZ4HZ9V-13" value="DPA" style="swimlane;fontStyle=2;align=center;verticalAlign=top;childLayout=stackLayout;horizontal=1;startSize=26;horizontalStack=0;resizeParent=1;resizeLast=0;collapsible=1;marginBottom=0;rounded=0;shadow=0;strokeWidth=1;" vertex="1" parent="WIyWlLk6GJQsqaUBKTNV-1">
          <mxGeometry x="50" y="-860" width="160" height="164" as="geometry">
            <mxRectangle x="230" y="140" width="160" height="26" as="alternateBounds" />
          </mxGeometry>
        </mxCell>
        <mxCell id="sukDIFnTaNtangZ4HZ9V-14" value="- id: int" style="text;align=left;verticalAlign=top;spacingLeft=4;spacingRight=4;overflow=hidden;rotatable=0;points=[[0,0.5],[1,0.5]];portConstraint=eastwest;" vertex="1" parent="sukDIFnTaNtangZ4HZ9V-13">
          <mxGeometry y="26" width="160" height="26" as="geometry" />
        </mxCell>
        <mxCell id="sukDIFnTaNtangZ4HZ9V-15" value="- name: string" style="text;align=left;verticalAlign=top;spacingLeft=4;spacingRight=4;overflow=hidden;rotatable=0;points=[[0,0.5],[1,0.5]];portConstraint=eastwest;rounded=0;shadow=0;html=0;" vertex="1" parent="sukDIFnTaNtangZ4HZ9V-13">
          <mxGeometry y="52" width="160" height="26" as="geometry" />
        </mxCell>
        <mxCell id="sukDIFnTaNtangZ4HZ9V-17" value="" style="line;html=1;strokeWidth=1;align=left;verticalAlign=middle;spacingTop=-1;spacingLeft=3;spacingRight=3;rotatable=0;labelPosition=right;points=[];portConstraint=eastwest;" vertex="1" parent="sukDIFnTaNtangZ4HZ9V-13">
          <mxGeometry y="78" width="160" height="8" as="geometry" />
        </mxCell>
        <mxCell id="sukDIFnTaNtangZ4HZ9V-18" value="+ processViolation(): void" style="text;align=left;verticalAlign=top;spacingLeft=4;spacingRight=4;overflow=hidden;rotatable=0;points=[[0,0.5],[1,0.5]];portConstraint=eastwest;" vertex="1" parent="sukDIFnTaNtangZ4HZ9V-13">
          <mxGeometry y="86" width="160" height="26" as="geometry" />
        </mxCell>
        <mxCell id="sukDIFnTaNtangZ4HZ9V-19" value="+ assignSanction(): void" style="text;align=left;verticalAlign=top;spacingLeft=4;spacingRight=4;overflow=hidden;rotatable=0;points=[[0,0.5],[1,0.5]];portConstraint=eastwest;" vertex="1" parent="sukDIFnTaNtangZ4HZ9V-13">
          <mxGeometry y="112" width="160" height="26" as="geometry" />
        </mxCell>
        <mxCell id="sukDIFnTaNtangZ4HZ9V-20" value="+ verify Report(): void" style="text;align=left;verticalAlign=top;spacingLeft=4;spacingRight=4;overflow=hidden;rotatable=0;points=[[0,0.5],[1,0.5]];portConstraint=eastwest;" vertex="1" parent="sukDIFnTaNtangZ4HZ9V-13">
          <mxGeometry y="138" width="160" height="26" as="geometry" />
        </mxCell>
        <mxCell id="sukDIFnTaNtangZ4HZ9V-21" value="DPA" style="swimlane;fontStyle=2;align=center;verticalAlign=top;childLayout=stackLayout;horizontal=1;startSize=26;horizontalStack=0;resizeParent=1;resizeLast=0;collapsible=1;marginBottom=0;rounded=0;shadow=0;strokeWidth=1;" vertex="1" parent="WIyWlLk6GJQsqaUBKTNV-1">
          <mxGeometry x="400" y="-870" width="160" height="164" as="geometry">
            <mxRectangle x="230" y="140" width="160" height="26" as="alternateBounds" />
          </mxGeometry>
        </mxCell>
        <mxCell id="sukDIFnTaNtangZ4HZ9V-22" value="- id: int" style="text;align=left;verticalAlign=top;spacingLeft=4;spacingRight=4;overflow=hidden;rotatable=0;points=[[0,0.5],[1,0.5]];portConstraint=eastwest;" vertex="1" parent="sukDIFnTaNtangZ4HZ9V-21">
          <mxGeometry y="26" width="160" height="26" as="geometry" />
        </mxCell>
        <mxCell id="sukDIFnTaNtangZ4HZ9V-23" value="- level: int" style="text;align=left;verticalAlign=top;spacingLeft=4;spacingRight=4;overflow=hidden;rotatable=0;points=[[0,0.5],[1,0.5]];portConstraint=eastwest;rounded=0;shadow=0;html=0;" vertex="1" parent="sukDIFnTaNtangZ4HZ9V-21">
          <mxGeometry y="52" width="160" height="26" as="geometry" />
        </mxCell>
        <mxCell id="sukDIFnTaNtangZ4HZ9V-24" value="" style="line;html=1;strokeWidth=1;align=left;verticalAlign=middle;spacingTop=-1;spacingLeft=3;spacingRight=3;rotatable=0;labelPosition=right;points=[];portConstraint=eastwest;" vertex="1" parent="sukDIFnTaNtangZ4HZ9V-21">
          <mxGeometry y="78" width="160" height="8" as="geometry" />
        </mxCell>
        <mxCell id="sukDIFnTaNtangZ4HZ9V-25" value="+ processViolation(): void" style="text;align=left;verticalAlign=top;spacingLeft=4;spacingRight=4;overflow=hidden;rotatable=0;points=[[0,0.5],[1,0.5]];portConstraint=eastwest;" vertex="1" parent="sukDIFnTaNtangZ4HZ9V-21">
          <mxGeometry y="86" width="160" height="26" as="geometry" />
        </mxCell>
        <mxCell id="sukDIFnTaNtangZ4HZ9V-26" value="+ assignSanction(): void" style="text;align=left;verticalAlign=top;spacingLeft=4;spacingRight=4;overflow=hidden;rotatable=0;points=[[0,0.5],[1,0.5]];portConstraint=eastwest;" vertex="1" parent="sukDIFnTaNtangZ4HZ9V-21">
          <mxGeometry y="112" width="160" height="26" as="geometry" />
        </mxCell>
        <mxCell id="sukDIFnTaNtangZ4HZ9V-27" value="+ determineViolationLevel(): void" style="text;align=left;verticalAlign=top;spacingLeft=4;spacingRight=4;overflow=hidden;rotatable=0;points=[[0,0.5],[1,0.5]];portConstraint=eastwest;" vertex="1" parent="sukDIFnTaNtangZ4HZ9V-21">
          <mxGeometry y="138" width="160" height="26" as="geometry" />
        </mxCell>
        <mxCell id="sukDIFnTaNtangZ4HZ9V-30" value="" style="endArrow=block;dashed=1;endFill=0;endSize=12;html=1;rounded=0;exitX=0.836;exitY=-0.02;exitDx=0;exitDy=0;exitPerimeter=0;entryX=-0.005;entryY=0.756;entryDx=0;entryDy=0;entryPerimeter=0;" edge="1" parent="WIyWlLk6GJQsqaUBKTNV-1" source="sukDIFnTaNtangZ4HZ9V-13" target="sukDIFnTaNtangZ4HZ9V-6">
          <mxGeometry width="160" relative="1" as="geometry">
            <mxPoint x="240" y="-780" as="sourcePoint" />
            <mxPoint x="400" y="-780" as="targetPoint" />
          </mxGeometry>
        </mxCell>
        <mxCell id="sukDIFnTaNtangZ4HZ9V-31" value="" style="endArrow=block;dashed=1;endFill=0;endSize=12;html=1;rounded=0;exitX=0.589;exitY=-0.012;exitDx=0;exitDy=0;exitPerimeter=0;entryX=-0.001;entryY=0.197;entryDx=0;entryDy=0;entryPerimeter=0;" edge="1" parent="WIyWlLk6GJQsqaUBKTNV-1" source="sukDIFnTaNtangZ4HZ9V-13" target="sukDIFnTaNtangZ4HZ9V-6">
          <mxGeometry width="160" relative="1" as="geometry">
            <mxPoint x="194" y="-853" as="sourcePoint" />
            <mxPoint x="239" y="-905" as="targetPoint" />
            <Array as="points">
              <mxPoint x="200" y="-910" />
            </Array>
          </mxGeometry>
        </mxCell>
        <mxCell id="sukDIFnTaNtangZ4HZ9V-32" value="" style="endArrow=block;dashed=1;endFill=0;endSize=12;html=1;rounded=0;exitX=0.86;exitY=0.001;exitDx=0;exitDy=0;exitPerimeter=0;entryX=1.014;entryY=0.269;entryDx=0;entryDy=0;entryPerimeter=0;" edge="1" parent="WIyWlLk6GJQsqaUBKTNV-1" source="sukDIFnTaNtangZ4HZ9V-21" target="sukDIFnTaNtangZ4HZ9V-5">
          <mxGeometry width="160" relative="1" as="geometry">
            <mxPoint x="430" y="-892" as="sourcePoint" />
            <mxPoint x="475" y="-944" as="targetPoint" />
          </mxGeometry>
        </mxCell>
        <mxCell id="sukDIFnTaNtangZ4HZ9V-33" value="" style="endArrow=block;dashed=1;endFill=0;endSize=12;html=1;rounded=0;exitX=0.188;exitY=0;exitDx=0;exitDy=0;exitPerimeter=0;entryX=1.01;entryY=0.395;entryDx=0;entryDy=0;entryPerimeter=0;" edge="1" parent="WIyWlLk6GJQsqaUBKTNV-1" source="sukDIFnTaNtangZ4HZ9V-21" target="sukDIFnTaNtangZ4HZ9V-6">
          <mxGeometry width="160" relative="1" as="geometry">
            <mxPoint x="390" y="-891" as="sourcePoint" />
            <mxPoint x="476" y="-970" as="targetPoint" />
            <Array as="points">
              <mxPoint x="430" y="-910" />
            </Array>
          </mxGeometry>
        </mxCell>
        <mxCell id="sukDIFnTaNtangZ4HZ9V-34" value="User" style="swimlane;fontStyle=2;align=center;verticalAlign=top;childLayout=stackLayout;horizontal=1;startSize=26;horizontalStack=0;resizeParent=1;resizeLast=0;collapsible=1;marginBottom=0;rounded=0;shadow=0;strokeWidth=1;" vertex="1" parent="WIyWlLk6GJQsqaUBKTNV-1">
          <mxGeometry x="220" y="-650" width="160" height="184" as="geometry">
            <mxRectangle x="230" y="140" width="160" height="26" as="alternateBounds" />
          </mxGeometry>
        </mxCell>
        <mxCell id="sukDIFnTaNtangZ4HZ9V-56" value="- id: int" style="text;align=left;verticalAlign=top;spacingLeft=4;spacingRight=4;overflow=hidden;rotatable=0;points=[[0,0.5],[1,0.5]];portConstraint=eastwest;" vertex="1" parent="sukDIFnTaNtangZ4HZ9V-34">
          <mxGeometry y="26" width="160" height="26" as="geometry" />
        </mxCell>
        <mxCell id="sukDIFnTaNtangZ4HZ9V-57" value="- name: string" style="text;align=left;verticalAlign=top;spacingLeft=4;spacingRight=4;overflow=hidden;rotatable=0;points=[[0,0.5],[1,0.5]];portConstraint=eastwest;" vertex="1" parent="sukDIFnTaNtangZ4HZ9V-34">
          <mxGeometry y="52" width="160" height="26" as="geometry" />
        </mxCell>
        <mxCell id="sukDIFnTaNtangZ4HZ9V-35" value="" style="line;html=1;strokeWidth=1;align=left;verticalAlign=middle;spacingTop=-1;spacingLeft=3;spacingRight=3;rotatable=0;labelPosition=right;points=[];portConstraint=eastwest;" vertex="1" parent="sukDIFnTaNtangZ4HZ9V-34">
          <mxGeometry y="78" width="160" height="8" as="geometry" />
        </mxCell>
        <mxCell id="sukDIFnTaNtangZ4HZ9V-58" value="+ getld(): int" style="text;align=left;verticalAlign=top;spacingLeft=4;spacingRight=4;overflow=hidden;rotatable=0;points=[[0,0.5],[1,0.5]];portConstraint=eastwest;" vertex="1" parent="sukDIFnTaNtangZ4HZ9V-34">
          <mxGeometry y="86" width="160" height="26" as="geometry" />
        </mxCell>
        <mxCell id="sukDIFnTaNtangZ4HZ9V-36" value="+ getName(): string" style="text;align=left;verticalAlign=top;spacingLeft=4;spacingRight=4;overflow=hidden;rotatable=0;points=[[0,0.5],[1,0.5]];portConstraint=eastwest;" vertex="1" parent="sukDIFnTaNtangZ4HZ9V-34">
          <mxGeometry y="112" width="160" height="26" as="geometry" />
        </mxCell>
        <mxCell id="sukDIFnTaNtangZ4HZ9V-37" value="+ abstract displayInfo(): void&#xa;" style="text;align=left;verticalAlign=top;spacingLeft=4;spacingRight=4;overflow=hidden;rotatable=0;points=[[0,0.5],[1,0.5]];portConstraint=eastwest;" vertex="1" parent="sukDIFnTaNtangZ4HZ9V-34">
          <mxGeometry y="138" width="160" height="46" as="geometry" />
        </mxCell>
        <mxCell id="sukDIFnTaNtangZ4HZ9V-38" value="Student" style="swimlane;fontStyle=0;align=center;verticalAlign=top;childLayout=stackLayout;horizontal=1;startSize=26;horizontalStack=0;resizeParent=1;resizeLast=0;collapsible=1;marginBottom=0;rounded=0;shadow=0;strokeWidth=1;" vertex="1" parent="WIyWlLk6GJQsqaUBKTNV-1">
          <mxGeometry x="30" y="-350" width="160" height="164" as="geometry">
            <mxRectangle x="230" y="140" width="160" height="26" as="alternateBounds" />
          </mxGeometry>
        </mxCell>
        <mxCell id="sukDIFnTaNtangZ4HZ9V-39" value="- major: string" style="text;align=left;verticalAlign=top;spacingLeft=4;spacingRight=4;overflow=hidden;rotatable=0;points=[[0,0.5],[1,0.5]];portConstraint=eastwest;" vertex="1" parent="sukDIFnTaNtangZ4HZ9V-38">
          <mxGeometry y="26" width="160" height="26" as="geometry" />
        </mxCell>
        <mxCell id="sukDIFnTaNtangZ4HZ9V-40" value="- points: int" style="text;align=left;verticalAlign=top;spacingLeft=4;spacingRight=4;overflow=hidden;rotatable=0;points=[[0,0.5],[1,0.5]];portConstraint=eastwest;rounded=0;shadow=0;html=0;" vertex="1" parent="sukDIFnTaNtangZ4HZ9V-38">
          <mxGeometry y="52" width="160" height="26" as="geometry" />
        </mxCell>
        <mxCell id="sukDIFnTaNtangZ4HZ9V-41" value="" style="line;html=1;strokeWidth=1;align=left;verticalAlign=middle;spacingTop=-1;spacingLeft=3;spacingRight=3;rotatable=0;labelPosition=right;points=[];portConstraint=eastwest;" vertex="1" parent="sukDIFnTaNtangZ4HZ9V-38">
          <mxGeometry y="78" width="160" height="8" as="geometry" />
        </mxCell>
        <mxCell id="sukDIFnTaNtangZ4HZ9V-42" value="+ reportViolation(): void" style="text;align=left;verticalAlign=top;spacingLeft=4;spacingRight=4;overflow=hidden;rotatable=0;points=[[0,0.5],[1,0.5]];portConstraint=eastwest;" vertex="1" parent="sukDIFnTaNtangZ4HZ9V-38">
          <mxGeometry y="86" width="160" height="26" as="geometry" />
        </mxCell>
        <mxCell id="sukDIFnTaNtangZ4HZ9V-43" value="+ viewHistory(): void" style="text;align=left;verticalAlign=top;spacingLeft=4;spacingRight=4;overflow=hidden;rotatable=0;points=[[0,0.5],[1,0.5]];portConstraint=eastwest;" vertex="1" parent="sukDIFnTaNtangZ4HZ9V-38">
          <mxGeometry y="112" width="160" height="26" as="geometry" />
        </mxCell>
        <mxCell id="sukDIFnTaNtangZ4HZ9V-44" value="+ displayInfo(): void" style="text;align=left;verticalAlign=top;spacingLeft=4;spacingRight=4;overflow=hidden;rotatable=0;points=[[0,0.5],[1,0.5]];portConstraint=eastwest;" vertex="1" parent="sukDIFnTaNtangZ4HZ9V-38">
          <mxGeometry y="138" width="160" height="26" as="geometry" />
        </mxCell>
        <mxCell id="sukDIFnTaNtangZ4HZ9V-45" value="Lecturer" style="swimlane;fontStyle=0;align=center;verticalAlign=top;childLayout=stackLayout;horizontal=1;startSize=26;horizontalStack=0;resizeParent=1;resizeLast=0;collapsible=1;marginBottom=0;rounded=0;shadow=0;strokeWidth=1;" vertex="1" parent="WIyWlLk6GJQsqaUBKTNV-1">
          <mxGeometry x="260" y="-350" width="160" height="164" as="geometry">
            <mxRectangle x="230" y="140" width="160" height="26" as="alternateBounds" />
          </mxGeometry>
        </mxCell>
        <mxCell id="sukDIFnTaNtangZ4HZ9V-46" value="- nip: string" style="text;align=left;verticalAlign=top;spacingLeft=4;spacingRight=4;overflow=hidden;rotatable=0;points=[[0,0.5],[1,0.5]];portConstraint=eastwest;" vertex="1" parent="sukDIFnTaNtangZ4HZ9V-45">
          <mxGeometry y="26" width="160" height="26" as="geometry" />
        </mxCell>
        <mxCell id="sukDIFnTaNtangZ4HZ9V-47" value="- department: string" style="text;align=left;verticalAlign=top;spacingLeft=4;spacingRight=4;overflow=hidden;rotatable=0;points=[[0,0.5],[1,0.5]];portConstraint=eastwest;rounded=0;shadow=0;html=0;" vertex="1" parent="sukDIFnTaNtangZ4HZ9V-45">
          <mxGeometry y="52" width="160" height="26" as="geometry" />
        </mxCell>
        <mxCell id="sukDIFnTaNtangZ4HZ9V-48" value="" style="line;html=1;strokeWidth=1;align=left;verticalAlign=middle;spacingTop=-1;spacingLeft=3;spacingRight=3;rotatable=0;labelPosition=right;points=[];portConstraint=eastwest;" vertex="1" parent="sukDIFnTaNtangZ4HZ9V-45">
          <mxGeometry y="78" width="160" height="8" as="geometry" />
        </mxCell>
        <mxCell id="sukDIFnTaNtangZ4HZ9V-49" value="+ reportViolation(): void" style="text;align=left;verticalAlign=top;spacingLeft=4;spacingRight=4;overflow=hidden;rotatable=0;points=[[0,0.5],[1,0.5]];portConstraint=eastwest;" vertex="1" parent="sukDIFnTaNtangZ4HZ9V-45">
          <mxGeometry y="86" width="160" height="26" as="geometry" />
        </mxCell>
        <mxCell id="sukDIFnTaNtangZ4HZ9V-50" value="+ displayInfo(): void" style="text;align=left;verticalAlign=top;spacingLeft=4;spacingRight=4;overflow=hidden;rotatable=0;points=[[0,0.5],[1,0.5]];portConstraint=eastwest;" vertex="1" parent="sukDIFnTaNtangZ4HZ9V-45">
          <mxGeometry y="112" width="160" height="26" as="geometry" />
        </mxCell>
        <mxCell id="sukDIFnTaNtangZ4HZ9V-59" value="Admin" style="swimlane;fontStyle=0;align=center;verticalAlign=top;childLayout=stackLayout;horizontal=1;startSize=26;horizontalStack=0;resizeParent=1;resizeLast=0;collapsible=1;marginBottom=0;rounded=0;shadow=0;strokeWidth=1;" vertex="1" parent="WIyWlLk6GJQsqaUBKTNV-1">
          <mxGeometry x="480" y="-350" width="160" height="164" as="geometry">
            <mxRectangle x="230" y="140" width="160" height="26" as="alternateBounds" />
          </mxGeometry>
        </mxCell>
        <mxCell id="sukDIFnTaNtangZ4HZ9V-60" value="- staffld: string" style="text;align=left;verticalAlign=top;spacingLeft=4;spacingRight=4;overflow=hidden;rotatable=0;points=[[0,0.5],[1,0.5]];portConstraint=eastwest;" vertex="1" parent="sukDIFnTaNtangZ4HZ9V-59">
          <mxGeometry y="26" width="160" height="26" as="geometry" />
        </mxCell>
        <mxCell id="sukDIFnTaNtangZ4HZ9V-61" value="- department: string" style="text;align=left;verticalAlign=top;spacingLeft=4;spacingRight=4;overflow=hidden;rotatable=0;points=[[0,0.5],[1,0.5]];portConstraint=eastwest;rounded=0;shadow=0;html=0;" vertex="1" parent="sukDIFnTaNtangZ4HZ9V-59">
          <mxGeometry y="52" width="160" height="26" as="geometry" />
        </mxCell>
        <mxCell id="sukDIFnTaNtangZ4HZ9V-62" value="" style="line;html=1;strokeWidth=1;align=left;verticalAlign=middle;spacingTop=-1;spacingLeft=3;spacingRight=3;rotatable=0;labelPosition=right;points=[];portConstraint=eastwest;" vertex="1" parent="sukDIFnTaNtangZ4HZ9V-59">
          <mxGeometry y="78" width="160" height="8" as="geometry" />
        </mxCell>
        <mxCell id="sukDIFnTaNtangZ4HZ9V-63" value="+ manageDPA(): void" style="text;align=left;verticalAlign=top;spacingLeft=4;spacingRight=4;overflow=hidden;rotatable=0;points=[[0,0.5],[1,0.5]];portConstraint=eastwest;" vertex="1" parent="sukDIFnTaNtangZ4HZ9V-59">
          <mxGeometry y="86" width="160" height="26" as="geometry" />
        </mxCell>
        <mxCell id="sukDIFnTaNtangZ4HZ9V-64" value="+ displayInfo(): void" style="text;align=left;verticalAlign=top;spacingLeft=4;spacingRight=4;overflow=hidden;rotatable=0;points=[[0,0.5],[1,0.5]];portConstraint=eastwest;" vertex="1" parent="sukDIFnTaNtangZ4HZ9V-59">
          <mxGeometry y="112" width="160" height="26" as="geometry" />
        </mxCell>
        <mxCell id="sukDIFnTaNtangZ4HZ9V-67" value="Extends" style="endArrow=block;endSize=16;endFill=0;html=1;rounded=0;entryX=-0.001;entryY=0.605;entryDx=0;entryDy=0;entryPerimeter=0;exitX=0.664;exitY=0.01;exitDx=0;exitDy=0;exitPerimeter=0;" edge="1" parent="WIyWlLk6GJQsqaUBKTNV-1" source="sukDIFnTaNtangZ4HZ9V-38" target="sukDIFnTaNtangZ4HZ9V-37">
          <mxGeometry width="160" relative="1" as="geometry">
            <mxPoint x="150" y="-250" as="sourcePoint" />
            <mxPoint x="310" y="-250" as="targetPoint" />
          </mxGeometry>
        </mxCell>
        <mxCell id="sukDIFnTaNtangZ4HZ9V-68" value="Extends" style="endArrow=block;endSize=16;endFill=0;html=1;rounded=0;entryX=0.15;entryY=0.992;entryDx=0;entryDy=0;entryPerimeter=0;exitX=0.75;exitY=0;exitDx=0;exitDy=0;" edge="1" parent="WIyWlLk6GJQsqaUBKTNV-1" source="sukDIFnTaNtangZ4HZ9V-38" target="sukDIFnTaNtangZ4HZ9V-37">
          <mxGeometry width="160" relative="1" as="geometry">
            <mxPoint x="146" y="-338" as="sourcePoint" />
            <mxPoint x="230" y="-474" as="targetPoint" />
          </mxGeometry>
        </mxCell>
        <mxCell id="sukDIFnTaNtangZ4HZ9V-69" value="Extends" style="endArrow=block;endSize=16;endFill=0;html=1;rounded=0;exitX=0.25;exitY=0;exitDx=0;exitDy=0;" edge="1" parent="WIyWlLk6GJQsqaUBKTNV-1" source="sukDIFnTaNtangZ4HZ9V-45" target="sukDIFnTaNtangZ4HZ9V-37">
          <mxGeometry width="160" relative="1" as="geometry">
            <mxPoint x="220" y="-330" as="sourcePoint" />
            <mxPoint x="304" y="-466" as="targetPoint" />
          </mxGeometry>
        </mxCell>
        <mxCell id="sukDIFnTaNtangZ4HZ9V-70" value="Extends" style="endArrow=block;endSize=16;endFill=0;html=1;rounded=0;entryX=0.735;entryY=0.965;entryDx=0;entryDy=0;entryPerimeter=0;exitX=0.464;exitY=-0.015;exitDx=0;exitDy=0;exitPerimeter=0;" edge="1" parent="WIyWlLk6GJQsqaUBKTNV-1" source="sukDIFnTaNtangZ4HZ9V-45" target="sukDIFnTaNtangZ4HZ9V-37">
          <mxGeometry width="160" relative="1" as="geometry">
            <mxPoint x="260" y="-340" as="sourcePoint" />
            <mxPoint x="354" y="-456" as="targetPoint" />
          </mxGeometry>
        </mxCell>
        <mxCell id="sukDIFnTaNtangZ4HZ9V-73" value="Extends" style="endArrow=block;endSize=16;endFill=0;html=1;rounded=0;entryX=1;entryY=0.913;entryDx=0;entryDy=0;entryPerimeter=0;exitX=0.212;exitY=-0.017;exitDx=0;exitDy=0;exitPerimeter=0;" edge="1" parent="WIyWlLk6GJQsqaUBKTNV-1" source="sukDIFnTaNtangZ4HZ9V-59" target="sukDIFnTaNtangZ4HZ9V-37">
          <mxGeometry width="160" relative="1" as="geometry">
            <mxPoint x="450" y="-394" as="sourcePoint" />
            <mxPoint x="534" y="-530" as="targetPoint" />
          </mxGeometry>
        </mxCell>
        <mxCell id="sukDIFnTaNtangZ4HZ9V-74" value="Extends" style="endArrow=block;endSize=16;endFill=0;html=1;rounded=0;entryX=0.948;entryY=-0.006;entryDx=0;entryDy=0;entryPerimeter=0;exitX=0.573;exitY=-0.008;exitDx=0;exitDy=0;exitPerimeter=0;" edge="1" parent="WIyWlLk6GJQsqaUBKTNV-1" source="sukDIFnTaNtangZ4HZ9V-59" target="sukDIFnTaNtangZ4HZ9V-37">
          <mxGeometry width="160" relative="1" as="geometry">
            <mxPoint x="464" y="-396" as="sourcePoint" />
            <mxPoint x="558" y="-512" as="targetPoint" />
          </mxGeometry>
        </mxCell>
      </root>
    </mxGraphModel>
  </diagram>
</mxfile>
